<?xml version="1.0" encoding="UTF-8" standalone="no"?>
<svg
   xmlns:dc="http://purl.org/dc/elements/1.1/"
   xmlns:cc="http://creativecommons.org/ns#"
   xmlns:rdf="http://www.w3.org/1999/02/22-rdf-syntax-ns#"
   xmlns:svg="http://www.w3.org/2000/svg"
   xmlns="http://www.w3.org/2000/svg"
   xmlns:sodipodi="http://sodipodi.sourceforge.net/DTD/sodipodi-0.dtd"
   xmlns:inkscape="http://www.inkscape.org/namespaces/inkscape"
   version="1.0"
   width="700.000000pt"
   height="790.000000pt"
   viewBox="0 0 700.000000 790.000000"
   preserveAspectRatio="xMidYMid meet"
   id="svg52"
   sodipodi:docname="fun_facts.svg"
   inkscape:version="0.92.2 5c3e80d, 2017-08-06">
  <defs
     id="defs56" />
  <sodipodi:namedview
     pagecolor="#ffffff"
     bordercolor="#666666"
     borderopacity="1"
     objecttolerance="10"
     gridtolerance="10"
     guidetolerance="10"
     inkscape:pageopacity="0"
     inkscape:pageshadow="2"
     inkscape:window-width="640"
     inkscape:window-height="480"
     id="namedview54"
     showgrid="false"
     inkscape:zoom="0.22405063"
     inkscape:cx="466.66667"
     inkscape:cy="526.66667"
     inkscape:window-x="0"
     inkscape:window-y="27"
     inkscape:window-maximized="0"
     inkscape:current-layer="svg52" />
  <metadata
     id="metadata2">
Created by potrace 1.12, written by Peter Selinger 2001-2015
<rdf:RDF>
  <cc:Work
     rdf:about="">
    <dc:format>image/svg+xml</dc:format>
    <dc:type
       rdf:resource="http://purl.org/dc/dcmitype/StillImage" />
    <dc:title></dc:title>
  </cc:Work>
</rdf:RDF>
</metadata>
  <g
     transform="translate(0.000000,790.000000) scale(0.100000,-0.100000)"
     fill="#000000"
     stroke="none"
     id="g50">
    <path
       d="M3418 7847 c-49 -41 -49 -41 -44 -463 4 -373 5 -398 24 -423 26 -36 82 -53 135 -41 81 18 87 49 87 491 0 380 -2 396 -55 437 -38 30 -110 30 -147 -1z"
       id="path4" />
    <path
       d="M2074 7790 c-12 -4 -31 -21 -43 -36 -35 -44 -26 -121 29 -239 5 -11 62 -153 126 -315 183 -465 238 -584 298 -647 45 -49 107 -42 165 21 19 20 23 35 22 76 0 27 -7 60 -15 73 -24 36 -197 455 -384 925 -36 93 -50 117 -76 133 -32 20 -86 24 -122 9z"
       id="path6" />
    <path
       d="M4788 7783 c-31 -20 -41 -42 -194 -428 -127 -321 -227 -562 -261 -628 -44 -83 -21 -161 54 -193 82 -35 121 -4 201 159 29 58 52 108 52 112 0 3 27 70 59 148 133 318 273 681 278 717 6 46 -22 100 -62 118 -37 17 -95 14 -127 -5z"
       id="path8" />
    <path
       d="M1054 6871 c-45 -28 -64 -59 -64 -108 0 -37 7 -50 59 -110 93 -107 483 -488 518 -507 18 -9 42 -16 55 -16 38 0 95 45 108 85 24 73 19 81 -273 376 -149 152 -282 281 -294 287 -32 17 -74 15 -109 -7z"
       id="path10" />
    <path
       d="M5825 6879 c-39 -21 -567 -564 -575 -591 -13 -42 6 -93 47 -128 31 -28 42 -31 75 -27 55 7 98 45 370 321 266 270 274 282 240 359 -29 66 -100 96 -157 66z"
       id="path12" />
    <path
       d="M2869 6305 c-89 -18 -195 -73 -266 -138 -40 -37 -75 -60 -113 -72 -128 -42 -224 -145 -266 -285 -13 -43 -19 -50 -68 -74 -87 -42 -158 -132 -185 -231 -8 -30 -19 -45 -46 -59 -46 -25 -147 -131 -174 -183 -48 -94 -63 -164 -63 -290 l0 -95 -39 -51 c-49 -65 -92 -168 -114 -272 -28 -136 -7 -404 51 -635 63 -251 193 -511 362 -724 57 -72 138 -154 344 -351 99 -95 121 -122 158 -195 64 -126 72 -165 79 -417 6 -204 8 -224 27 -250 39 -52 46 -53 379 -53 332 0 341 1 378 52 27 36 25 72 -12 333 -28 197 -58 409 -117 840 -14 99 -38 273 -54 386 -32 223 -36 269 -20 269 6 0 31 19 56 42 l45 41 32 -30 c44 -42 69 -53 117 -53 34 0 48 7 86 42 l45 41 32 -30 c44 -42 69 -53 117 -53 34 0 48 7 85 41 46 43 56 43 87 3 10 -12 31 -27 48 -34 17 -7 30 -20 30 -30 0 -10 -11 -96 -24 -191 -14 -96 -39 -275 -56 -399 -17 -124 -42 -301 -55 -395 -13 -93 -31 -219 -39 -280 -8 -60 -27 -195 -41 -298 -30 -209 -28 -226 27 -272 l30 -25 314 0 c348 0 358 2 391 63 14 26 18 72 24 257 6 237 15 282 71 395 36 73 126 180 207 249 385 325 633 784 706 1306 22 164 22 319 0 400 -23 85 -66 175 -110 232 -35 46 -35 48 -35 143 0 204 -82 370 -229 464 -39 25 -49 38 -59 76 -26 96 -89 171 -192 227 -39 21 -46 31 -60 79 -42 139 -144 242 -275 278 -26 7 -61 30 -99 66 -124 118 -309 173 -488 146 -190 -29 -334 -161 -380 -346 -13 -56 -25 -76 -31 -54 -3 8 -10 34 -18 59 -26 92 -72 171 -127 220 -129 115 -284 153 -473 115z m279 -210 c117 -64 167 -168 160 -337 -2 -75 -8 -103 -28 -142 -31 -60 -99 -122 -145 -130 -44 -9 -65 -30 -65 -66 0 -62 72 -75 162 -29 l39 20 19 -43 c24 -52 24 -70 4 -137 -9 -33 -30 -69 -55 -96 -34 -36 -50 -46 -97 -55 -31 -7 -65 -19 -74 -28 -25 -21 -22 -57 5 -82 19 -18 29 -21 72 -15 28 3 70 15 94 26 24 10 48 16 53 12 17 -9 1 -149 -22 -201 -49 -111 -144 -164 -290 -164 -250 1 -496 105 -678 289 -62 62 -89 83 -109 83 -33 0 -63 -26 -63 -56 0 -52 153 -199 298 -284 39 -24 72 -46 72 -50 0 -15 -136 -10 -156 5 -25 19 -74 18 -98 0 -14 -11 -47 -15 -119 -15 l-99 0 -35 38 c-43 46 -98 160 -114 231 -18 84 -8 206 22 271 36 77 68 111 140 150 58 31 66 32 143 28 90 -5 169 -33 207 -74 41 -44 109 -21 109 36 0 20 -13 39 -44 68 l-43 40 -18 130 c-18 124 -18 134 -2 208 19 90 51 136 116 172 57 33 157 33 231 1 48 -21 55 -21 79 -8 52 29 40 88 -24 118 -25 12 -45 26 -45 31 0 11 86 57 145 76 23 8 73 12 120 11 66 -3 89 -8 133 -32z m945 20 c55 -16 147 -64 147 -76 0 -4 -20 -17 -44 -28 -56 -24 -72 -52 -56 -92 17 -40 50 -46 111 -19 61 26 157 29 209 8 42 -18 94 -68 117 -111 22 -44 28 -188 12 -312 -7 -58 -16 -105 -19 -105 -3 0 -23 -15 -43 -34 -29 -27 -37 -41 -37 -69 0 -65 59 -76 121 -23 47 40 131 66 215 66 78 0 146 -32 204 -97 63 -70 85 -135 85 -253 0 -107 -23 -184 -81 -277 -58 -92 -61 -93 -172 -93 -71 0 -104 4 -118 15 -10 8 -32 14 -49 14 -16 0 -39 -6 -49 -14 -24 -18 -160 -21 -154 -4 2 6 24 23 48 36 148 83 320 244 320 301 0 21 -39 52 -65 52 -19 0 -47 -21 -103 -78 -180 -184 -429 -292 -677 -293 -150 -2 -251 53 -296 159 -23 52 -37 196 -21 205 5 4 30 -2 55 -13 73 -33 127 -36 160 -10 51 40 25 95 -51 105 -71 10 -119 46 -149 111 -32 70 -39 125 -23 166 22 55 27 58 66 38 87 -45 164 -31 164 29 0 35 -23 56 -76 70 -53 14 -105 66 -140 138 -53 111 -31 306 44 394 40 46 94 83 143 98 51 14 148 13 202 -4z m-563 -554 l21 -53 -19 -52 c-11 -28 -23 -64 -27 -80 -7 -35 -16 -28 -31 27 -6 23 -17 56 -25 73 -11 27 -10 38 8 85 12 30 24 63 28 74 l7 20 8 -20 c4 -11 18 -44 30 -74z m-1265 -13 c3 -13 6 -43 7 -67 l3 -45 -55 3 c-30 1 -59 6 -63 10 -13 13 9 56 47 89 43 38 54 40 61 10z m2515 -4 c36 -31 65 -83 53 -94 -4 -5 -33 -10 -63 -11 l-55 -3 2 55 c4 89 12 95 63 53z m-1260 -375 c10 -44 10 -65 1 -89 -6 -18 -11 -81 -11 -140 0 -88 5 -122 25 -184 30 -93 31 -110 4 -137 -30 -30 -78 -22 -101 17 -18 31 -18 33 1 76 34 81 44 148 37 259 -12 171 -10 204 10 269 5 13 6 13 13 0 4 -8 14 -40 21 -71z m-1690 -509 c11 -23 18 -45 15 -50 -10 -16 -85 -12 -91 5 -6 16 32 85 47 85 5 0 18 -18 29 -40z m3390 4 c28 -48 21 -64 -30 -64 -25 0 -43 5 -46 14 -5 14 33 86 46 86 4 0 18 -16 30 -36z m-10 -335 c0 -113 -56 -354 -122 -524 -119 -304 -292 -544 -547 -755 -116 -97 -244 -292 -286 -435 -9 -33 -22 -73 -27 -90 -6 -16 -13 -101 -15 -187 l-6 -158 -143 0 c-163 0 -151 -9 -134 94 5 34 23 162 40 286 17 124 41 302 55 395 13 94 38 271 55 395 17 124 40 288 51 365 56 397 56 398 2 445 -56 50 -131 39 -194 -29 l-21 -23 -27 25 c-86 79 -147 78 -234 -2 l-28 -26 -17 23 c-60 79 -171 82 -230 7 -11 -14 -23 -25 -27 -25 -4 0 -27 18 -51 40 -36 33 -51 40 -84 40 -48 0 -73 -11 -117 -53 l-32 -30 -45 41 c-39 36 -52 42 -88 42 -54 0 -101 -28 -118 -70 -12 -30 -10 -61 20 -274 18 -133 39 -284 46 -336 7 -52 31 -228 54 -390 23 -162 48 -342 55 -400 8 -58 21 -148 29 -200 8 -52 19 -136 25 -187 6 -50 14 -106 17 -122 l7 -31 -147 0 -146 0 0 114 c0 312 -128 591 -353 773 -293 236 -506 556 -596 894 -40 151 -71 365 -56 389 4 7 586 10 1721 10 l1714 0 0 -31z"
       id="path14" />
    <path
       d="M3062 5844 c-12 -8 -22 -21 -22 -28 0 -22 -54 -64 -96 -75 -23 -6 -45 -18 -48 -27 -18 -47 8 -94 54 -94 72 0 156 53 190 121 27 51 25 74 -6 98 -32 25 -43 26 -72 5z"
       id="path16" />
    <path
       d="M2524 5715 c-15 -23 -15 -31 -4 -68 23 -71 50 -120 93 -164 l41 -43 -32 -33 c-52 -53 -39 -117 24 -117 27 0 45 9 79 42 44 40 46 41 84 30 21 -7 61 -12 89 -12 43 0 54 4 67 24 31 47 -1 96 -62 96 -39 1 -134 41 -180 78 -24 19 -48 51 -62 84 -45 104 -44 103 -83 106 -30 3 -40 -1 -54 -23z"
       id="path18" />
    <path
       d="M2701 5113 c-27 -33 -20 -58 26 -100 67 -61 184 -82 223 -41 41 44 13 91 -62 102 -27 4 -62 19 -84 36 -49 37 -77 38 -103 3z"
       id="path20" />
    <path
       d="M3856 5839 c-34 -27 -34 -65 0 -115 33 -47 47 -60 102 -84 82 -37 142 -17 142 46 0 28 -21 44 -79 64 -35 11 -50 23 -66 52 -11 20 -30 42 -43 47 -29 14 -25 15 -56 -10z"
       id="path22" />
    <path
       d="M4367 5722 c-10 -10 -17 -25 -17 -33 0 -8 -11 -38 -25 -65 -39 -78 -136 -140 -240 -153 -40 -5 -52 -11 -65 -33 -13 -25 -13 -31 0 -55 15 -26 20 -28 80 -27 36 1 77 5 93 9 23 6 34 1 72 -34 50 -46 91 -54 118 -23 25 28 21 57 -14 97 l-31 35 45 50 c56 62 103 179 86 213 -7 12 -17 25 -23 29 -20 14 -63 8 -79 -10z"
       id="path24" />
    <path
       d="M4186 5111 c-24 -19 -55 -33 -84 -37 -26 -3 -55 -13 -64 -22 -41 -36 -5 -102 55 -102 53 0 129 27 170 60 45 38 52 88 15 114 -32 23 -50 20 -92 -13z"
       id="path26" />
    <path
       d="M121 5845 c-40 -34 -56 -84 -41 -129 20 -63 19 -62 554 -290 523 -223 607 -250 664 -210 54 37 67 119 29 175 -17 25 -37 39 -77 52 -67 21 -148 55 -638 264 -417 177 -437 183 -491 138z"
       id="path28" />
    <path
       d="M6695 5845 c-138 -65 -854 -367 -939 -395 -85 -29 -116 -63 -116 -127 0 -56 31 -110 68 -120 70 -17 227 41 914 340 119 51 228 101 242 110 36 24 53 85 37 137 -23 78 -109 101 -206 55z"
       id="path30" />
    <path
       d="M75 4492 c-66 -26 -91 -123 -49 -189 28 -44 73 -48 471 -46 402 2 411 3 447 57 9 15 16 46 16 75 0 44 -4 52 -35 80 -20 17 -43 31 -53 32 -9 0 -185 1 -390 2 -293 2 -381 -1 -407 -11z"
       id="path32" />
    <path
       d="M6088 4487 c-43 -22 -63 -63 -60 -126 1 -32 8 -52 25 -69 36 -36 209 -46 576 -36 l293 9 29 35 c23 27 29 44 29 83 0 42 -5 54 -34 83 -19 19 -45 34 -58 35 -12 0 -189 1 -393 2 -339 2 -373 0 -407 -16z"
       id="path34" />
    <path
       d="M1025 3494 c-274 -121 -734 -314 -815 -341 -88 -29 -116 -52 -131 -106 -9 -33 -7 -47 7 -78 43 -98 90 -97 359 8 50 19 104 41 120 48 17 7 95 41 175 75 80 34 165 70 190 81 25 11 119 52 210 92 139 61 168 77 188 107 52 76 2 178 -89 186 -37 3 -70 -8 -214 -72z"
       id="path36" />
    <path
       d="M5689 3547 c-61 -41 -72 -144 -21 -190 20 -18 768 -342 926 -401 55 -20 128 -44 163 -52 56 -13 66 -13 92 0 15 8 36 32 46 52 36 77 -5 163 -90 185 -45 12 -235 91 -708 293 -175 75 -331 136 -346 136 -16 0 -43 -10 -62 -23z"
       id="path38" />
    <path
       d="M1570 2624 c-18 -7 -558 -551 -571 -576 -28 -51 5 -133 64 -161 47 -23 55 -22 113 14 73 45 540 522 554 565 26 78 -22 153 -102 160 -24 2 -50 1 -58 -2z"
       id="path40" />
    <path
       d="M5322 2623 c-25 -5 -66 -55 -75 -92 -14 -56 3 -80 183 -265 331 -341 409 -406 465 -392 69 17 118 105 93 165 -15 37 -543 569 -576 582 -24 9 -49 10 -90 2z"
       id="path42" />
    <path
       d="M2701 1762 c-45 -24 -71 -74 -71 -135 0 -42 5 -53 39 -90 l40 -42 773 -3 c757 -2 774 -2 806 18 52 32 74 76 69 138 -3 38 -10 59 -28 78 -52 56 -16 54 -836 54 -715 0 -760 -1 -792 -18z"
       id="path44" />
    <path
       d="M2715 1376 c-52 -24 -78 -60 -83 -119 -5 -64 13 -105 60 -139 l33 -23 765 0 c747 0 766 0 799 20 89 53 93 186 7 248 l-31 22 -760 2 c-619 2 -766 0 -790 -11z"
       id="path46" />
    <path
       d="M2744 1026 c-56 -25 -74 -59 -74 -145 1 -269 170 -545 423 -690 29 -16 95 -44 147 -62 90 -31 102 -33 245 -33 161 -1 196 5 325 57 220 88 402 287 470 510 47 157 54 270 19 319 -43 60 -22 58 -806 58 -578 -1 -724 -3 -749 -14z m1308 -266 c-8 -55 -76 -174 -138 -239 -229 -242 -593 -248 -832 -12 -59 57 -131 183 -148 254 l-6 27 563 -2 564 -3 -3 -25z"
       id="path48" />
  </g>
</svg>
