<?xml version="1.0" ?><!DOCTYPE svg  PUBLIC '-//W3C//DTD SVG 1.1//EN'  'http://www.w3.org/Graphics/SVG/1.1/DTD/svg11.dtd' [
	<!ENTITY stroke_color "#666666">
	<!ENTITY fill_color "#a0a0a0">
]><svg height="55" id="svg16" style="" version="1.1" viewBox="0 0 49.021224 49.021221" width="55.000004" xmlns="http://www.w3.org/2000/svg" xmlns:cc="http://creativecommons.org/ns#" xmlns:dc="http://purl.org/dc/elements/1.1/" xmlns:rdf="http://www.w3.org/1999/02/22-rdf-syntax-ns#" xmlns:svg="http://www.w3.org/2000/svg">
  <path d="m 1.7640833,22.51053 c -0.97270503,0 -1.764081971875,0.79138 -1.764081971875,1.76408 0,0.97271 0.791376941875,1.76398 1.764081971875,1.76398 0.972705,0 1.7639746,-0.79138 1.7639746,-1.76398 0,-0.9727 -0.7912696,-1.76408 -1.7639746,-1.76408 z m 0,2.66868 c -0.4988672,0 -0.90470699,-0.40584 -0.90470699,-0.9046 0,-0.49886 0.40583979,-0.9047 0.90470699,-0.9047 0.4988672,0 0.9045996,0.40584 0.9045996,0.9047 0,0.49876 -0.4058399,0.9046 -0.9045996,0.9046 z" id="path2" style="fill:&fill_color;;stroke-width:0.10742188;stroke:&stroke_color;;stroke-opacity:1;fill-opacity:1"/>
  <path d="m 43.761201,22.84408 c -0.788799,0 -1.430429,0.64174 -1.430429,1.43043 0,0.78869 0.641738,1.43043 1.430429,1.43043 0.788692,0 1.43043,-0.64174 1.43043,-1.43043 0,-0.78869 -0.641631,-1.43043 -1.43043,-1.43043 z m 0,2.00159 c -0.314961,0 -0.571054,-0.2562 -0.571054,-0.57106 0,-0.31496 0.256201,-0.57105 0.571054,-0.57105 0.314854,0 0.571055,0.2562 0.571055,0.57105 0,0.31486 -0.256094,0.57106 -0.571055,0.57106 z" id="path4" style="fill:&fill_color;;stroke-width:0.10742188;stroke:&stroke_color;;stroke-opacity:1;fill-opacity:1"/>
  <circle cx="48.145519" cy="24.274607" id="circle6" r="0.87570316" style="fill:&fill_color;;stroke-width:0.10742188;stroke:&stroke_color;;stroke-opacity:1;fill-opacity:1"/>
  <path d="m 25.818096,24.27461 c 0,1.06466 0.866143,1.93081 1.930801,1.93081 1.064658,0 1.930908,-0.86615 1.930908,-1.93081 0,-1.06465 -0.866143,-1.9309 -1.930908,-1.9309 -1.064766,0 -1.930801,0.86625 -1.930801,1.9309 z m 3.002227,0 c 0,0.59083 -0.480713,1.07143 -1.071534,1.07143 -0.590712,0 -1.071425,-0.48071 -1.071425,-1.07143 0,-0.59082 0.480713,-1.07153 1.071425,-1.07153 0.590821,0 1.071534,0.48071 1.071534,1.07153 z" id="path8" style="fill:&fill_color;;stroke-width:0.10742188;stroke:&stroke_color;;stroke-opacity:1;fill-opacity:1"/>
  <path d="m 36.326856,20.08011 c -0.977754,0 -1.877735,0.3372 -2.591768,0.9002 L 33.12794,20.70252 c -0.710489,-0.32635 -1.123955,-1.09313 -1.005039,-1.86528 l 0.128369,-0.84133 c 0.01837,-0.1202 -0.01504,-0.24245 -0.09185,-0.33655 -0.07681,-0.0941 -0.190029,-0.15136 -0.311308,-0.15737 l -1.117832,-0.0559 c -0.733799,-0.0377 -1.372959,-0.53335 -1.590704,-1.23406 L 28.87403,15.3606 c -0.03502,-0.11258 -0.114942,-0.20582 -0.22086,-0.2577 -0.105703,-0.052 -0.228379,-0.0582 -0.338916,-0.0171 l -1.034043,0.38403 c -0.652265,0.24374 -1.388965,0.0772 -1.875478,-0.42378 L 24.70692,14.32546 c -0.08089,-0.0836 -0.192392,-0.13073 -0.30873,-0.13073 -0.116338,0 -0.227735,0.0472 -0.308731,0.13084 l -0.697597,0.72037 c -0.485977,0.50134 -1.221709,0.66774 -1.875371,0.42367 L 20.482018,15.0858 c -0.110537,-0.041 -0.233213,-0.0348 -0.339131,0.0173 -0.10581,0.0521 -0.185732,0.14545 -0.220644,0.25813 l -0.264151,0.85089 c -0.218603,0.7005 -0.857763,1.19647 -1.590058,1.23407 l -1.118369,0.056 c -0.121387,0.006 -0.234502,0.0633 -0.311416,0.15738 -0.07681,0.0941 -0.110215,0.21645 -0.09185,0.33655 l 0.128369,0.84133 c 0.117842,0.77215 -0.296055,1.53914 -1.006006,1.86516 l -0.954443,0.43721 c -0.113008,0.0518 -0.197979,0.14985 -0.233213,0.26898 -0.03523,0.11913 -0.01708,0.24772 0.04974,0.35256 l 0.484258,0.76001 c 0.437637,0.68664 0.349766,1.57685 -0.21334,2.16466 l -0.653232,0.68116 c -0.08648,0.0901 -0.129444,0.21345 -0.117735,0.33774 0.01171,0.12439 0.07702,0.2374 0.17875,0.3098 l 0.817911,0.58169 c 0.653232,0.4661 0.909111,1.3142 0.622295,2.06218 l -0.308838,0.80448 c -0.04415,0.11484 -0.03685,0.2431 0.01998,0.35224 0.05683,0.10914 0.157695,0.18874 0.277041,0.2186 l 1.067881,0.26694 c 0.739277,0.18402 1.273271,0.81963 1.328701,1.58104 l 0.06102,0.854 c 0.0085,0.11913 0.06617,0.22935 0.159199,0.30422 0.09303,0.0749 0.213018,0.10764 0.331182,0.0904 l 1.117509,-0.16274 c 0.706192,-0.10345 1.398955,0.22558 1.764619,0.8381 l 0.482969,0.81082 c 0.05962,0.10012 0.157373,0.17177 0.270811,0.19841 0.113437,0.0266 0.232783,0.006 0.330859,-0.0569 l 0.894824,-0.57578 c 0.577285,-0.37168 1.324297,-0.37168 1.902227,-1.1e-4 l 0.893427,0.57567 c 0.06993,0.0451 0.150928,0.0685 0.232784,0.0685 0.03276,0 0.06553,-0.004 0.09797,-0.0113 0.113438,-0.0265 0.211192,-0.0981 0.270918,-0.19809 l 0.484258,-0.81093 c 0.365772,-0.61284 1.05832,-0.94219 1.765264,-0.83842 l 1.11708,0.16263 c 0.118486,0.0172 0.238154,-0.0156 0.331289,-0.0904 0.09303,-0.0749 0.150713,-0.18508 0.159199,-0.30421 l 0.06091,-0.85401 c 0.05425,-0.76119 0.587813,-1.39648 1.327627,-1.58103 l 1.067559,-0.26684 c 0.119238,-0.0297 0.220107,-0.10925 0.276933,-0.21828 0.05672,-0.10903 0.06413,-0.23719 0.0202,-0.35202 l -0.307656,-0.8047 c -0.194004,-0.50639 -0.140831,-1.06197 0.123857,-1.51454 0.765596,0.81458 1.851631,1.32483 3.055078,1.32483 2.3129,0 4.194609,-1.8816 4.194609,-4.1945 0,-2.3129 -1.881279,-4.19461 -4.194179,-4.19461 z m -3.981699,8.88573 0.134492,0.35169 -0.597158,0.14921 c -1.101504,0.27468 -1.895889,1.22053 -1.976778,2.35372 l -0.02804,0.39274 -0.65914,-0.0959 c -1.051338,-0.15436 -2.082588,0.33591 -2.627325,1.24824 L 26.3349,33.79469 25.814656,33.45943 c -0.860879,-0.55322 -1.972803,-0.55322 -2.832393,1.1e-4 l -0.520674,0.33505 -0.255556,-0.42905 C 21.661296,32.4531 20.630046,31.96369 19.579031,32.11719 l -0.659571,0.096 -0.02814,-0.39338 C 18.80893,30.6864 18.014006,29.74077 16.913576,29.46684 l -0.596621,-0.14921 0.134922,-0.35148 c 0.427002,-1.11375 0.04641,-2.37596 -0.926084,-3.0699 l -0.41293,-0.2937 0.308945,-0.32215 c 0.838213,-0.87496 0.968946,-2.19957 0.317754,-3.22126 l -0.21914,-0.34386 0.506279,-0.23193 c 1.056924,-0.48533 1.672558,-1.6269 1.497246,-2.77599 l -0.05661,-0.37114 0.643886,-0.0322 c 1.09044,-0.056 2.04166,-0.79385 2.367149,-1.83691 l 0.129765,-0.4182 0.60833,0.2257 c 0.972813,0.3634 2.068623,0.11558 2.792325,-0.631 l 0.389082,-0.40187 0.389511,0.4023 c 0.724561,0.74604 1.820801,0.99354 2.792324,0.63078 l 0.608438,-0.22602 0.13041,0.41831 c 0.323984,1.04274 1.275205,1.78084 2.367686,1.83691 l 0.643349,0.0321 -0.0565,0.3706 c -0.176816,1.1491 0.438281,2.29078 1.496494,2.77675 l 0.308301,0.14105 c -0.590713,0.72295 -0.945849,1.64559 -0.945849,2.64977 0,0.78429 0.216884,1.51863 0.593076,2.14726 -0.558809,0.71597 -0.711348,1.67889 -0.379951,2.54429 z m 3.981699,-1.3561 c -1.838955,0 -3.335127,-1.49617 -3.335127,-3.33513 0,-1.83895 1.496172,-3.33512 3.335127,-3.33512 1.839062,0 3.335234,1.49617 3.335234,3.33512 0,1.83896 -1.496172,3.33513 -3.335234,3.33513 z" id="path10" style="fill:&fill_color;;stroke-width:0.10742188;stroke:&stroke_color;;stroke-opacity:1;fill-opacity:1"/>
  <circle cx="24.510612" cy="24.510611" id="path3699" r="6.6847119" style="fill:#808080;stroke-width:0.89122277;stroke:&stroke_color;;stroke-opacity:1;fill-opacity:1"/>
  <path d="m 24.398194,17.61961 c -2.574902,0 -4.917881,1.39026 -6.154844,3.63838 -1.164023,0.50704 -1.980215,1.66805 -1.980215,3.01673 0,1.16972 0.614346,2.19807 1.53667,2.78126 1.009658,2.76665 3.640313,4.61485 6.598389,4.61485 3.874599,0 7.026894,-3.15165 7.026894,-7.02561 0,-3.87395 -3.152402,-7.02561 -7.026894,-7.02561 z m -7.275791,6.655 c 0,-1.33976 1.089902,-2.42966 2.429668,-2.42966 1.339658,0 2.429668,1.0899 2.429668,2.42966 0,1.33966 -1.089903,2.42967 -2.429668,2.42967 -1.339658,0 -2.429668,-1.09001 -2.429668,-2.42967 z m 7.275791,6.53673 c -2.321494,0 -4.413643,-1.29658 -5.464121,-3.30676 0.200342,0.0382 0.406806,0.0591 0.618105,0.0591 1.813604,0 3.289043,-1.47544 3.289043,-3.28905 0,-1.8136 -1.475439,-3.28904 -3.289043,-3.28904 -0.04007,0 -0.07981,0.002 -0.11956,0.003 1.15124,-1.56729 2.979775,-2.50959 4.965576,-2.50959 3.400761,0 6.167519,2.76611 6.167519,6.16612 0,3.40001 -2.766865,6.16623 -6.167519,6.16623 z" id="path12" style="fill:&fill_color;;stroke-width:0.10742188;stroke:&stroke_color;;stroke-opacity:1;fill-opacity:1"/>
  <path d="m 12.775147,20.29345 c -0.527549,-0.52744 -1.532158,-0.38865 -2.8336811,0.38608 -0.241914,-0.0495 -0.4904882,-0.0753 -0.7431445,-0.0753 -0.980332,0 -1.9021191,0.38178 -2.5953124,1.07497 -0.9043848,0.90439 -1.2364258,2.16703 -0.9977344,3.33524 -0.7764453,1.30303 -0.9158789,2.30882 -0.3880078,2.8368 0.2112988,0.21129 0.4988672,0.31603 0.8511035,0.31603 0.4556836,0 1.0211523,-0.178 1.6687988,-0.52475 0.4551465,0.19754 0.950039,0.30228 1.4611523,0.30228 0.9803316,0 1.9020116,-0.38178 2.5953126,-1.07497 0.693193,-0.6933 1.07497,-1.61498 1.07497,-2.59531 0,-0.5109 -0.104629,-1.00558 -0.30207,-1.46062 0.61542,-1.1492 0.692978,-2.03607 0.208613,-2.52044 z M 7.2106945,22.28699 C 7.7415734,21.756 8.4475499,21.4636 9.1983214,21.4636 c 0.7507715,0 1.4567476,0.2924 1.9876266,0.82339 0.154902,0.15479 0.28875,0.32495 0.40165,0.50628 -0.430009,0.69996 -1.026738,1.43988 -1.7287395,2.14177 -0.702539,0.70265 -1.4422461,1.29927 -2.1418847,1.72874 -0.1813281,-0.1129 -0.3514844,-0.24674 -0.5062793,-0.40165 -1.0959179,-1.09591 -1.0959179,-2.87912 0,-3.97514 z m -1.3856347,4.95666 c -0.105166,-0.10506 -0.112041,-0.49339 0.1837988,-1.15425 0.1588769,0.2794 0.3563183,0.54259 0.5942578,0.78053 0.084326,0.0843 0.1720898,0.16382 0.2628613,0.2388 -0.5914648,0.24524 -0.9420898,0.23396 -1.0409179,0.13492 z m 5.3608882,-0.98141 c -0.530879,0.53088 -1.2367477,0.82328 -1.9875192,0.82328 -0.1675781,0 -0.3326855,-0.0154 -0.4943554,-0.0439 0.5888867,-0.41562 1.1889453,-0.92512 1.7626856,-1.49875 0.57331,-0.57331 1.082705,-1.17348 1.498642,-1.76269 0.02857,0.16167 0.04394,0.32689 0.04394,0.49446 -1.08e-4,0.75078 -0.292403,1.45665 -0.823389,1.98763 z m 0.607686,-4.58283 c -0.235469,-0.23547 -0.497793,-0.43409 -0.779346,-0.5949 0.660322,-0.29541 1.048223,-0.28843 1.153174,-0.18326 0.09894,0.0989 0.110215,0.44923 -0.135137,1.04091 -0.07487,-0.0908 -0.154365,-0.17853 -0.238691,-0.26275 z" id="path14" style="fill:&fill_color;;stroke-width:0.10742188;stroke:&stroke_color;;stroke-opacity:1;fill-opacity:1"/>
</svg>
